HIERARCHY
ROOT root
{
	OFFSET 0.000000 0.000000 0.000000
	CHANNELS 6 Xposition Yposition Zposition Zrotation Yrotation Xrotation
	JOINT lhip
	{
		OFFSET 0.058581 -0.082280 -0.017664
		CHANNELS 3 Zrotation Yrotation Xrotation
		JOINT lknee
		{
			OFFSET 0.043451 -0.386469 0.008037
			CHANNELS 3 Zrotation Yrotation Xrotation
			JOINT lankle
			{
				OFFSET -0.014790 -0.426874 -0.037428
				CHANNELS 3 Zrotation Yrotation Xrotation
				JOINT ltoe
				{
					OFFSET 0.041054 -0.060286 0.122042
					CHANNELS 3 Zrotation Yrotation Xrotation
					End Site
					{
						OFFSET 0.000000 0.000000 0.000000
					}
				}
			}
		}
	}
	JOINT rhip
	{
		OFFSET -0.060310 -0.090513 -0.013543
		CHANNELS 3 Zrotation Yrotation Xrotation
		JOINT rknee
		{
			OFFSET -0.043257 -0.383688 -0.004843
			CHANNELS 3 Zrotation Yrotation Xrotation
			JOINT rankle
			{
				OFFSET 0.019056 -0.420046 -0.034562
				CHANNELS 3 Zrotation Yrotation Xrotation
				JOINT rtoe
				{
					OFFSET -0.034840 -0.062106 0.130323
					CHANNELS 3 Zrotation Yrotation Xrotation
					End Site
					{
						OFFSET 0.000000 0.000000 0.000000
					}
				}
			}
		}
	}
	JOINT lowerback
	{
		OFFSET 0.004439 0.124404 -0.038385
		CHANNELS 3 Zrotation Yrotation Xrotation
		JOINT upperback
		{
			OFFSET 0.004488 0.137956 0.026820
			CHANNELS 3 Zrotation Yrotation Xrotation
			JOINT chest
			{
				OFFSET -0.002265 0.056032 0.002855
				CHANNELS 3 Zrotation Yrotation Xrotation
				JOINT lowerneck
				{
					OFFSET -0.013390 0.211636 -0.033468
					CHANNELS 3 Zrotation Yrotation Xrotation
					JOINT upperneck
					{
						OFFSET 0.010113 0.088937 0.050410
						CHANNELS 3 Zrotation Yrotation Xrotation
						End Site
						{
							OFFSET 0.000000 0.000000 0.000000
						}
					}
				}
				JOINT lclavicle
				{
					OFFSET 0.071702 0.114000 -0.018898
					CHANNELS 3 Zrotation Yrotation Xrotation
					JOINT lshoulder
					{
						OFFSET 0.122921 0.045205 -0.019046
						CHANNELS 3 Zrotation Yrotation Xrotation
						JOINT lelbow
						{
							OFFSET 0.255332 -0.015649 -0.022946
							CHANNELS 3 Zrotation Yrotation Xrotation
							JOINT lwrist
							{
								OFFSET 0.265709 0.012698 -0.007375
								CHANNELS 3 Zrotation Yrotation Xrotation
								End Site
								{
									OFFSET 0.000000 0.000000 0.000000
								}
							}
						}
					}
				}
				JOINT rclavicle
				{
					OFFSET -0.082954 0.112472 -0.023707
					CHANNELS 3 Zrotation Yrotation Xrotation
					JOINT rshoulder
					{
						OFFSET -0.113228 0.046853 -0.008472
						CHANNELS 3 Zrotation Yrotation Xrotation
						JOINT relbow
						{
							OFFSET -0.260127 -0.014369 -0.031269
							CHANNELS 3 Zrotation Yrotation Xrotation
							JOINT rwrist
							{
								OFFSET -0.269108 0.006794 -0.006027
								CHANNELS 3 Zrotation Yrotation Xrotation
								End Site
								{
									OFFSET 0.000000 0.000000 0.000000
								}
							}
						}
					}
				}
			}
		}
	}
}
MOTION
Frames: 8
Frame Time: 0.033333
-0.227114 0.350936 1.116050 44.535870 43.475080 136.265761 26.919020 35.414312 -40.143630 -7.607815 37.797738 -17.225601 15.595974 23.333752 33.909967 0.000000 -0.000000 0.000000 -19.650540 -2.567583 26.057215 2.925785 10.370709 57.771699 7.485508 -10.463255 50.978138 0.000000 -0.000000 0.000000 -1.420814 11.495424 -10.812766 8.332479 -0.193642 -13.153601 0.317356 9.236584 -21.338333 21.261011 25.208472 -1.432175 -2.517604 10.745673 -10.840243 8.726191 13.090879 -12.935465 -3.933525 1.759514 6.355107 6.960803 -4.436312 20.709371 -17.268829 18.550452 9.089054 -3.721510 -9.154237 -9.475454 -25.596244 30.458347 -28.397288 -6.850703 -11.017666 -9.431568 3.647895 -19.835191 16.252908 
-0.227151 0.351538 1.114982 43.981810 43.067040 135.507720 26.333013 35.078282 -40.101796 -7.125570 37.855790 -16.800476 15.580413 23.570156 33.692712 0.000000 -0.000000 0.000000 -18.605084 -4.465407 23.709736 1.996419 7.931172 55.040303 7.574587 -11.017635 51.782197 0.000000 -0.000000 0.000000 -1.868795 11.437543 -9.844594 7.601623 0.175222 -13.318480 0.613149 9.225572 -20.736235 20.347480 24.977975 -1.199233 -2.143397 10.975440 -11.859838 8.344208 11.635336 -12.378277 -3.761242 2.275116 6.549643 6.734189 -3.521674 19.762123 -15.844844 17.411103 10.451111 -4.413878 -7.576877 -9.072294 -24.950877 29.284961 -27.666267 -6.380155 -12.837531 -10.305838 3.290859 -18.709641 16.060604 
-0.228002 0.352244 1.114052 43.352418 42.607288 134.174061 26.023825 34.479323 -39.387468 -6.619605 37.291523 -16.621857 16.190376 24.282869 33.786404 0.000000 -0.000000 0.000000 -17.377735 -6.218857 22.008047 0.602053 5.407657 52.056926 7.519168 -12.641248 53.074820 0.000000 -0.000000 0.000000 -2.367737 11.353257 -8.371502 7.271086 0.619935 -14.296029 0.876837 9.335375 -19.321578 19.918352 24.228884 -1.399156 -1.546325 11.390319 -10.955867 8.133754 11.784058 -12.021427 -3.856938 1.675376 6.129436 6.576203 -4.982351 18.926062 -15.720249 18.575226 11.248224 -4.123801 -7.450514 -8.550771 -25.152083 29.420013 -28.996500 -6.477315 -13.032668 -10.005987 3.174483 -20.038944 17.649105 
-0.228340 0.352108 1.113652 42.914874 42.343682 133.029921 25.770998 34.428527 -39.093872 -6.136106 37.121731 -15.634528 16.239086 24.935835 32.893683 0.000000 -0.000000 0.000000 -15.224329 -7.278888 20.516924 0.326319 3.772033 49.961040 7.163640 -12.701690 51.636606 0.000000 -0.000000 0.000000 -2.571888 11.416678 -8.055082 7.272432 0.959409 -14.178296 1.150026 9.360461 -18.396914 20.189353 23.943039 -0.928758 -1.204818 11.413423 -9.171424 7.805110 11.908889 -12.148282 -3.842655 0.673025 5.693637 6.481212 -5.197731 19.492317 -15.377978 19.163420 13.123538 -3.789064 -7.085172 -8.492915 -25.495259 29.977336 -29.778316 -6.026871 -12.937520 -9.570365 3.047575 -19.663299 18.114708 
-0.229439 0.353243 1.113521 42.071811 41.740231 131.797083 25.559655 34.039790 -38.952690 -5.563189 36.974996 -14.183321 16.896828 25.943715 32.613304 0.000000 -0.000000 0.000000 -13.231502 -7.663736 18.859296 1.051610 3.224170 48.685096 6.684254 -12.130323 48.638743 0.000000 -0.000000 0.000000 -3.012028 11.677841 -8.102313 7.189768 1.344253 -13.848386 1.468990 9.225140 -17.624757 19.914600 22.463285 0.729421 -0.750893 11.696822 -7.133682 7.142658 11.308003 -12.166212 -3.669872 0.472558 5.719519 6.188352 -5.525475 20.425629 -13.609082 19.394154 15.133239 -3.510161 -6.261469 -8.739913 -25.605440 30.461030 -29.896074 -5.341618 -12.445752 -8.944467 1.785538 -19.558384 19.288538 
-0.231679 0.355836 1.114334 41.374871 40.827834 130.207330 24.647332 33.986746 -39.675116 -4.530664 37.536377 -11.279939 17.000779 26.488215 30.875813 0.000000 -0.000000 0.000000 -11.445035 -7.883509 17.531988 0.131986 2.282813 46.324625 6.340499 -12.954640 48.485313 0.000000 -0.000000 0.000000 -3.185503 11.834481 -7.153098 7.002284 1.665296 -13.622432 1.579296 9.211351 -16.965972 20.085421 20.963157 2.337769 -0.727341 11.105038 -4.472327 6.796313 11.011728 -12.330339 -4.860088 0.152552 6.346757 6.508066 -6.170787 20.997459 -12.670388 19.601070 16.673116 -3.523530 -5.406541 -8.714760 -25.094336 30.888187 -29.932807 -5.172654 -12.058346 -8.017268 1.320576 -19.175148 20.159575 
-0.234872 0.359686 1.113291 40.760527 39.625255 128.533237 23.421010 34.055844 -41.045851 -3.273426 37.902176 -6.569704 16.802972 27.652709 25.810781 0.000000 -0.000000 0.000000 -10.203299 -8.505700 16.304989 -1.741582 1.392828 43.469932 6.172728 -14.168750 49.244785 0.000000 -0.000000 0.000000 -2.754825 12.063516 -6.523029 6.714204 1.765416 -12.688538 1.290758 9.534054 -15.853705 19.645073 18.918354 4.117020 -1.086980 10.592858 -1.811465 5.518914 10.765905 -13.393520 -6.418619 -1.085985 7.090978 6.458662 -5.983887 22.283855 -11.111880 19.915864 19.128049 -3.245769 -4.345495 -9.094159 -25.288808 31.877747 -30.682947 -5.078846 -12.761191 -6.815056 -0.990571 -19.139328 23.194357 
-0.238424 0.365704 1.107915 39.839850 37.379849 126.443087 21.209440 32.949903 -42.476924 -2.212347 38.276650 -1.458797 16.657178 30.861982 16.389030 0.000000 -0.000000 0.000000 -10.457364 -9.051764 15.309582 -2.485589 1.196413 40.480813 6.125434 -15.047521 50.181690 0.000000 -0.000000 0.000000 -2.836721 12.442019 -5.504241 6.082465 2.046812 -11.402566 0.830490 9.491590 -15.372067 19.094900 15.698926 6.184122 -1.825685 10.469954 0.674998 3.596466 9.935184 -13.446639 -8.152841 -1.969400 7.641003 6.651629 -6.621435 22.412328 -9.609916 19.959050 20.627782 -3.179336 -2.787385 -8.105422 -25.656242 32.214641 -31.820492 -4.908214 -13.015874 -5.346776 -3.502862 -18.479114 26.412312 
